<svg width="120" height="120" viewBox="0 0 120 120" xmlns="http://www.w3.org/2000/svg">
  <defs>
    <linearGradient id="catGradient" x1="0%" y1="0%" x2="100%" y2="100%">
      <stop offset="0%" style="stop-color:#6366f1;stop-opacity:1" />
      <stop offset="100%" style="stop-color:#8b5cf6;stop-opacity:1" />
    </linearGradient>
    <linearGradient id="bgGradient" x1="0%" y1="0%" x2="100%" y2="100%">
      <stop offset="0%" style="stop-color:#1e293b;stop-opacity:1" />
      <stop offset="100%" style="stop-color:#0f172a;stop-opacity:1" />
    </linearGradient>
  </defs>
  
  <!-- Background Circle -->
  <circle cx="60" cy="60" r="58" fill="url(#bgGradient)" stroke="#6366f1" stroke-width="2"/>
  
  <!-- Cat Head -->
  <ellipse cx="60" cy="55" rx="25" ry="20" fill="url(#catGradient)"/>
  
  <!-- Cat Ears -->
  <path d="M45 45 L38 30 L52 35 Z" fill="url(#catGradient)"/>
  <path d="M75 45 L82 30 L68 35 Z" fill="url(#catGradient)"/>
  
  <!-- Inner Ears -->
  <path d="M45 42 L41 33 L49 36 Z" fill="#f1f5f9"/>
  <path d="M75 42 L79 33 L71 36 Z" fill="#f1f5f9"/>
  
  <!-- Cat Eyes -->
  <ellipse cx="52" cy="52" rx="3" ry="4" fill="#1e293b"/>
  <ellipse cx="68" cy="52" rx="3" ry="4" fill="#1e293b"/>
  
  <!-- Eye Shine -->
  <ellipse cx="53" cy="50" rx="1" ry="1.5" fill="#ffffff"/>
  <ellipse cx="69" cy="50" rx="1" ry="1.5" fill="#ffffff"/>
  
  <!-- Cat Nose -->
  <path d="M60 58 L57 62 L63 62 Z" fill="#ec4899"/>
  
  <!-- Cat Mouth -->
  <path d="M60 62 Q55 66 50 64" stroke="#1e293b" stroke-width="1.5" fill="none" stroke-linecap="round"/>
  <path d="M60 62 Q65 66 70 64" stroke="#1e293b" stroke-width="1.5" fill="none" stroke-linecap="round"/>
  
  <!-- Whiskers -->
  <line x1="35" y1="55" x2="45" y2="57" stroke="#1e293b" stroke-width="1" stroke-linecap="round"/>
  <line x1="35" y1="60" x2="45" y2="60" stroke="#1e293b" stroke-width="1" stroke-linecap="round"/>
  <line x1="75" y1="57" x2="85" y2="55" stroke="#1e293b" stroke-width="1" stroke-linecap="round"/>
  <line x1="75" y1="60" x2="85" y2="60" stroke="#1e293b" stroke-width="1" stroke-linecap="round"/>
  
  <!-- Code Brackets (representing web development) -->
  <path d="M25 80 L20 85 L25 90" stroke="#6366f1" stroke-width="2" fill="none" stroke-linecap="round"/>
  <path d="M95 80 L100 85 L95 90" stroke="#6366f1" stroke-width="2" fill="none" stroke-linecap="round"/>
  
  <!-- Small dots for tech feel -->
  <circle cx="30" cy="25" r="1.5" fill="#6366f1" opacity="0.6"/>
  <circle cx="90" cy="25" r="1.5" fill="#8b5cf6" opacity="0.6"/>
  <circle cx="30" cy="95" r="1.5" fill="#8b5cf6" opacity="0.6"/>
  <circle cx="90" cy="95" r="1.5" fill="#6366f1" opacity="0.6"/>
</svg>