<svg xmlns="http://www.w3.org/2000/svg" viewBox="0 0 64 64" role="img" aria-labelledby="title desc">
  <title id="title">Meow Labs favicon</title>
  <desc id="desc">Simplified cat logo representing Meow Labs</desc>
  <defs>
    <linearGradient id="grad" x1="0%" y1="0%" x2="100%" y2="100%">
      <stop offset="0%" stop-color="#8b5cf6" />
      <stop offset="100%" stop-color="#ec4899" />
    </linearGradient>
  </defs>
  <rect width="64" height="64" rx="14" fill="url(#grad)" />
  <path
    d="M20 22c1.5-3 4.5-7 12-7s10.5 4 12 7l5 11c1 2.4-0.4 5.2-3.4 6.2A47 47 0 0 1 32 41a47 47 0 0 1-13.6-1.8c-3-1-4.4-3.8-3.4-6.2z"
    fill="#fff"
    opacity="0.95"
  />
  <path
    d="M24 28c1.2-0.8 2.4-1.2 3.7-1.2 2.2 0 4.2 1.2 4.3 3.2 0.2-2 2.2-3.2 4.4-3.2 1.3 0 2.5 0.4 3.7 1.2"
    stroke="#312e81"
    stroke-width="2.5"
    stroke-linecap="round"
    fill="none"
  />
  <circle cx="26.5" cy="32.5" r="1.8" fill="#312e81" />
  <circle cx="37.5" cy="32.5" r="1.8" fill="#312e81" />
  <path
    d="M28 39c1.5 1.2 3.1 1.8 4.9 1.8S36.3 40.2 38 39"
    stroke="#312e81"
    stroke-width="2.2"
    stroke-linecap="round"
    fill="none"
  />
</svg>
